<svg version="1.1" id="Layer_1" xmlns="http://www.w3.org/2000/svg" xmlns:xlink="http://www.w3.org/1999/xlink" class="w-14 h-14" viewBox="0 0 512 512" enable-background="new 0 0 512 512" xml:space="preserve">
  <path fill="none" opacity="1.000000" stroke="none" d="
M513.000000,178.000000 
	C513.000000,289.972778 513.000000,401.445557 513.000000,512.959167 
	C342.402222,512.959167 171.804413,512.959167 1.103307,512.959167 
	C1.103307,342.443909 1.103307,171.887756 1.103307,1.165792 
	C171.666534,1.165792 342.333252,1.165792 513.000000,1.165792 
	C513.000000,59.862217 513.000000,118.681107 513.000000,178.000000 
M199.433990,114.482521 
	C187.743286,111.570847 181.103836,114.485291 178.180099,124.705719 
	C176.995300,128.847382 177.535736,133.482590 177.190887,138.636887 
	C177.498688,139.752106 177.733582,140.893692 178.126038,141.978271 
	C180.765747,149.273361 185.794678,152.991608 192.963943,152.997192 
	C200.175354,153.002808 205.493851,149.404495 207.771957,142.050919 
	C209.983459,134.912338 210.236130,127.540031 206.241074,120.867851 
	C204.832123,118.514725 202.091934,116.958694 199.433990,114.482521 
M305.190826,138.636887 
	C305.498627,139.752106 305.733582,140.893677 306.126038,141.978271 
	C308.765747,149.273422 313.794647,152.991623 320.963959,152.997192 
	C328.175354,153.002792 333.493866,149.404510 335.772034,142.050903 
	C337.983551,134.912323 338.236115,127.540001 334.241089,120.867783 
	C332.832184,118.514648 330.091919,116.958633 327.433899,114.482498 
	C315.743256,111.570847 309.103760,114.485329 306.180084,124.705727 
	C304.995300,128.847397 305.535706,133.482590 305.190826,138.636887 
M234.850906,65.522209 
	C234.629623,65.210457 234.335022,65.106491 233.060135,65.157005 
	C223.141830,63.506615 216.559433,67.814011 212.239777,76.541138 
	C208.858261,83.372849 208.499496,90.529579 209.125000,98.691109 
	C210.967957,103.582581 212.341522,108.719849 214.748337,113.316055 
	C220.330154,123.975441 236.960403,123.507385 243.451172,113.518875 
	C249.351562,104.438927 250.178467,94.671356 248.508179,84.836967 
	C247.158524,76.890320 243.877625,69.123779 235.000305,65.999908 
	C235.000305,65.999908 235.016479,65.990784 234.850906,65.522209 
M290.850922,65.522202 
	C290.629639,65.210464 290.335052,65.106491 289.060150,65.157005 
	C279.141876,63.506634 272.559448,67.813950 268.239777,76.541115 
	C264.858246,83.372856 264.499573,90.529587 265.125000,98.691124 
	C266.967987,103.582588 268.341583,108.719841 270.748352,113.316063 
	C276.330078,123.975426 292.960388,123.507393 299.451202,113.518883 
	C305.351624,104.438927 306.178528,94.671371 304.508209,84.836960 
	C303.158539,76.890320 299.877625,69.123787 291.000153,65.999893 
	C291.000153,65.999893 291.016449,65.990761 290.850922,65.522202 
M222.708313,24.300983 
	C218.313980,18.674292 212.711685,16.330957 205.460083,16.890305 
	C198.858917,17.399485 192.187485,16.980171 185.547134,17.004025 
	C179.092697,17.027210 177.566315,18.441290 175.968964,24.980112 
	C155.289963,23.770269 136.359207,43.489063 136.843033,63.974766 
	C137.479294,90.914803 136.993347,117.881355 136.202713,144.969223 
	C130.422760,145.802322 129.035553,147.266876 129.011765,152.865295 
	C128.970718,162.524902 129.060974,172.185257 128.986389,181.844452 
	C128.866486,197.376846 132.795471,212.012787 139.507507,225.809174 
	C146.368011,239.910706 155.614334,252.240707 167.797089,262.483032 
	C181.451935,273.962952 196.547684,282.272705 213.965057,285.976227 
	C222.718948,287.837616 231.674591,288.750275 241.165482,290.186768 
	C241.165482,294.756012 241.165482,299.885468 241.027527,305.941681 
	C241.027527,316.189575 241.027527,326.437439 241.027527,337.000183 
	C223.911407,337.000183 207.466812,336.997375 191.022217,337.002563 
	C187.861526,337.003571 184.612717,336.562408 181.554489,337.131256 
	C162.286957,340.714935 145.457977,348.685944 132.438492,363.981628 
	C118.619667,380.216431 111.685219,398.604950 113.032784,420.900757 
	C113.042427,423.563446 112.661057,426.295990 113.122414,428.877991 
	C117.574615,453.794373 130.445557,473.131897 152.026031,486.456512 
	C168.298508,496.503784 186.445816,499.029236 204.844376,496.670380 
	C223.943985,494.221649 240.164734,485.102112 253.098389,470.453827 
	C265.232178,456.711426 272.462189,440.936768 272.917480,422.536743 
	C273.312683,406.566650 272.999847,390.578979 272.999908,374.599091 
	C272.999908,372.839172 272.999908,371.079254 272.999908,369.165497 
	C300.792389,369.165497 327.897247,369.165497 355.002594,369.953064 
	C356.643524,374.180634 358.003510,378.543976 359.971008,382.613678 
	C372.642548,408.823883 399.258575,420.254364 426.644348,416.742065 
	C443.717682,414.552338 457.867920,406.048523 468.552094,392.043823 
	C479.690369,377.443939 483.067657,360.777191 480.721924,343.248169 
	C478.408234,325.958344 469.974365,311.387756 455.488434,301.122528 
	C444.936371,293.644989 433.388062,288.405365 419.030518,289.044220 
	C414.706451,289.051453 410.225983,288.319580 406.085693,289.195465 
	C389.308685,292.744781 374.890228,300.564270 364.835571,314.870636 
	C360.194702,321.473999 355.875977,328.441254 354.079712,336.972168 
	C327.068573,336.951111 300.057465,336.930084 273.008728,335.983765 
	C273.008728,320.419159 273.008728,304.854553 273.008728,288.993500 
	C286.286896,289.490143 298.372345,287.213470 310.289978,283.109650 
	C333.919312,274.972870 352.555756,260.414642 366.426575,239.896301 
	C378.794922,221.600449 385.429077,201.339615 385.024902,179.008804 
	C384.871368,170.526962 385.012817,162.039978 384.995483,153.555405 
	C384.982330,147.098923 383.519836,145.521622 377.006195,143.921387 
	C377.003937,116.642799 377.010773,89.364204 376.980560,62.085644 
	C376.978363,60.105789 376.936340,58.077225 376.525208,56.154167 
	C372.704132,38.280327 356.286316,23.870762 337.019409,24.164730 
	C336.935333,19.007229 334.126862,16.924007 329.176880,16.978239 
	C321.725586,17.059874 314.256683,17.302063 306.825104,16.910376 
	C299.850342,16.542767 294.886810,19.322161 290.831268,25.657646 
	C284.878662,38.441105 292.395966,52.276970 306.393829,52.021324 
	C313.183289,51.897327 320.016388,51.543480 326.757660,52.126495 
	C333.696625,52.726612 337.734497,49.119923 337.977264,42.038555 
	C340.551788,42.473019 343.339294,42.416351 345.664856,43.424885 
	C357.240356,48.444847 360.937317,58.269508 360.973328,69.971916 
	C361.050049,94.926903 360.989532,119.882317 360.198151,144.973328 
	C355.672546,145.041229 353.141663,147.180328 353.000397,151.852097 
	C352.680084,162.445251 352.733276,173.069824 351.868896,183.618896 
	C351.343048,190.036514 350.056000,196.568130 347.945770,202.643875 
	C343.149323,216.453659 335.426666,228.341217 323.882538,237.804291 
	C311.635895,247.843185 297.818604,254.194733 282.292755,255.807755 
	C269.632599,257.123047 256.756805,257.358643 244.036545,256.772461 
	C234.508743,256.333405 224.777618,254.801132 215.670441,252.013168 
	C201.554382,247.691818 189.701218,239.488617 180.143051,227.833069 
	C170.114273,215.603729 163.833344,201.851349 162.155090,186.315323 
	C160.984589,175.479950 161.276352,164.481979 161.020874,153.554153 
	C160.869202,147.065536 159.563171,145.536835 153.007767,143.921799 
	C153.331284,116.697075 153.797440,89.472885 153.898331,62.247337 
	C153.932114,53.135059 166.568726,39.816380 176.974533,42.898567 
	C177.086288,49.653263 179.428024,51.999084 186.062469,51.999763 
	C193.182388,52.000488 200.303818,51.908005 207.421783,52.025860 
	C214.444290,52.142128 220.009186,49.328976 223.111603,43.172966 
	C226.075607,37.291592 226.391602,30.968163 222.708313,24.300983 
M260.981049,121.187248 
	C240.841324,118.593979 224.691544,130.932434 218.674149,147.706451 
	C217.145828,151.966797 215.594894,156.991974 212.398148,159.736954 
	C202.524368,168.215347 199.821625,178.669632 201.190964,191.647659 
	C206.453735,214.501938 229.336731,222.654144 248.146133,213.783356 
	C254.473663,210.799210 259.830536,210.898148 266.044617,213.882111 
	C280.988678,221.058197 297.228882,217.019348 307.051605,204.427231 
	C315.838074,193.163544 315.491608,173.733139 304.265137,161.877029 
	C301.166473,158.604553 298.480133,154.811829 296.230957,150.897873 
	C293.460052,146.076126 292.079193,140.324158 288.790375,135.959122 
	C282.187042,127.195015 273.272675,121.747246 260.981049,121.187248 
z" />
  <path fill="#E1322D" opacity="1.000000" stroke="none" d="
M241.165482,305.014954 
	C241.165482,299.885468 241.165482,294.756012 241.165482,290.186768 
	C231.674591,288.750275 222.718948,287.837616 213.965057,285.976227 
	C196.547684,282.272705 181.451935,273.962952 167.797089,262.483032 
	C155.614334,252.240707 146.368011,239.910706 139.507507,225.809174 
	C132.795471,212.012787 128.866486,197.376846 128.986389,181.844452 
	C129.060974,172.185257 128.970718,162.524902 129.011765,152.865295 
	C129.035553,147.266876 130.422760,145.802322 137.037323,144.959717 
	C140.251526,145.022064 142.631119,145.093933 145.008270,145.624054 
	C145.307510,160.543427 144.538483,175.122360 146.114532,189.443222 
	C150.581894,230.036057 182.002258,263.630554 222.175751,270.975128 
	C243.734863,274.916565 265.677429,274.172577 287.331604,271.773407 
	C327.799866,267.289734 363.709412,231.014252 367.807068,190.523849 
	C369.325653,175.518295 368.659393,160.291641 369.432861,145.108597 
	C372.254150,144.979752 374.632111,144.908127 377.010071,144.836502 
	C383.519836,145.521622 384.982330,147.098923 384.995483,153.555405 
	C385.012817,162.039978 384.871368,170.526962 385.024902,179.008804 
	C385.429077,201.339615 378.794922,221.600449 366.426575,239.896301 
	C352.555756,260.414642 333.919312,274.972870 310.289978,283.109650 
	C298.372345,287.213470 286.286896,289.490143 273.008728,288.993500 
	C273.008728,304.854553 273.008728,320.419159 273.017334,336.918488 
	C273.017517,340.518799 272.993988,343.184479 273.003632,345.850006 
	C273.029205,352.919617 273.089539,352.994415 280.377686,352.995789 
	C317.863159,353.002991 355.348633,352.997986 392.907898,353.402618 
	C394.898651,358.826660 396.815582,363.845367 398.282349,368.907104 
	C389.213531,369.022186 380.594879,369.094238 371.514252,369.099731 
	C365.702240,369.077301 360.352173,369.121399 355.002106,369.165497 
	C327.897247,369.165497 300.792389,369.165497 272.999908,369.165497 
	C272.999908,371.079254 272.999908,372.839172 272.999908,374.599091 
	C272.999847,390.578979 273.312683,406.566650 272.917480,422.536743 
	C272.462189,440.936768 265.232178,456.711426 253.098389,470.453827 
	C240.164734,485.102112 223.943985,494.221649 204.844376,496.670380 
	C186.445816,499.029236 168.298508,496.503784 152.026031,486.456512 
	C130.445557,473.131897 117.574615,453.794373 113.122414,428.877991 
	C112.661057,426.295990 113.042427,423.563446 113.317017,420.708679 
	C116.123558,424.240356 119.492470,425.947845 123.892059,424.335114 
	C128.189346,422.759857 128.914734,419.105591 129.028152,415.010376 
	C129.875565,384.408539 152.575226,358.002075 182.809723,354.154388 
	C196.739136,352.381744 211.009995,353.169006 225.128296,353.036072 
	C241.227997,352.884491 241.229095,353.001007 240.471069,369.062988 
	C225.858963,369.013489 211.707291,368.880463 197.560074,369.072815 
	C192.994476,369.134888 188.393936,369.798737 183.889816,370.625397 
	C169.416382,373.281830 158.564102,381.677612 151.666534,394.147614 
	C143.273361,409.321503 143.092514,425.359924 152.157471,440.490967 
	C161.289246,455.733612 174.883911,464.128052 192.763153,464.373901 
	C186.418686,467.183929 184.225098,470.339142 185.295288,474.871063 
	C186.316238,479.194458 189.563690,481.064819 195.920868,480.990631 
	C196.254150,480.986725 196.587692,480.988281 196.920654,480.975464 
	C225.035385,479.892059 251.715790,456.421631 255.804779,428.589600 
	C256.982758,420.571442 256.919922,412.331604 256.951996,404.191528 
	C257.073364,373.360077 257.009216,342.527863 256.992523,311.695953 
	C256.989014,305.242889 256.744537,305.037720 250.165024,305.003540 
	C247.165283,304.987976 244.165329,305.009979 241.165482,305.014954 
z" />
  <path fill="#463C4B" opacity="1.000000" stroke="none" d="
M261.890594,121.293037 
	C273.272675,121.747246 282.187042,127.195015 288.790375,135.959122 
	C292.079193,140.324158 293.460052,146.076126 296.230957,150.897873 
	C298.480133,154.811829 301.166473,158.604553 304.265137,161.877029 
	C315.491608,173.733139 315.838074,193.163544 307.051605,204.427231 
	C297.228882,217.019348 280.988678,221.058197 266.044617,213.882111 
	C259.830536,210.898148 254.473663,210.799210 248.146133,213.783356 
	C229.336731,222.654144 206.453735,214.501938 201.552246,191.393295 
	C210.980927,197.364059 215.570541,194.870422 217.275223,183.708206 
	C217.854706,179.913757 220.565704,176.347473 222.677109,172.906677 
	C226.018661,167.461273 230.837692,162.630615 232.955490,156.787384 
	C237.270432,144.882111 244.440216,137.775391 257.412872,136.854416 
	C263.815277,136.399902 266.657898,130.583282 263.756378,124.797661 
	C263.163269,123.614990 262.513977,122.460510 261.890594,121.293037 
z" />
  <path fill="#F04B37" opacity="1.000000" stroke="none" d="
M368.989532,145.165817 
	C368.659393,160.291641 369.325653,175.518295 367.807068,190.523849 
	C363.709412,231.014252 327.799866,267.289734 287.331604,271.773407 
	C265.677429,274.172577 243.734863,274.916565 222.175751,270.975128 
	C182.002258,263.630554 150.581894,230.036057 146.114532,189.443222 
	C144.538483,175.122360 145.307510,160.543427 145.450531,145.564438 
	C148.268372,144.976883 150.641510,144.907211 153.014633,144.837540 
	C159.563171,145.536835 160.869202,147.065536 161.020874,153.554153 
	C161.276352,164.481979 160.984589,175.479950 162.155090,186.315323 
	C163.833344,201.851349 170.114273,215.603729 180.143051,227.833069 
	C189.701218,239.488617 201.554382,247.691818 215.670441,252.013168 
	C224.777618,254.801132 234.508743,256.333405 244.036545,256.772461 
	C256.756805,257.358643 269.632599,257.123047 282.292755,255.807755 
	C297.818604,254.194733 311.635895,247.843185 323.882538,237.804291 
	C335.426666,228.341217 343.149323,216.453659 347.945770,202.643875 
	C350.056000,196.568130 351.343048,190.036514 351.868896,183.618896 
	C352.733276,173.069824 352.680084,162.445251 353.000397,151.852097 
	C353.141663,147.180328 355.672546,145.041229 361.031616,144.963760 
	C364.239929,145.024734 366.614716,145.095276 368.989532,145.165817 
z" />
  <path fill="#F04B37" opacity="1.000000" stroke="none" d="
M240.933258,369.105774 
	C241.229095,353.001007 241.227997,352.884491 225.128296,353.036072 
	C211.009995,353.169006 196.739136,352.381744 182.809723,354.154388 
	C152.575226,358.002075 129.875565,384.408539 129.028152,415.010376 
	C128.914734,419.105591 128.189346,422.759857 123.892059,424.335114 
	C119.492470,425.947845 116.123558,424.240356 113.388458,420.257568 
	C111.685219,398.604950 118.619667,380.216431 132.438492,363.981628 
	C145.457977,348.685944 162.286957,340.714935 181.554489,337.131256 
	C184.612717,336.562408 187.861526,337.003571 191.022217,337.002563 
	C207.466812,336.997375 223.911407,337.000183 241.027527,337.000183 
	C241.027527,326.437439 241.027527,316.189575 241.096497,305.478302 
	C244.165329,305.009979 247.165283,304.987976 250.165024,305.003540 
	C256.744537,305.037720 256.989014,305.242889 256.992523,311.695953 
	C257.009216,342.527863 257.073364,373.360077 256.951996,404.191528 
	C256.919922,412.331604 256.982758,420.571442 255.804779,428.589600 
	C251.715790,456.421631 225.035385,479.892059 196.920654,480.975464 
	C196.587692,480.988281 196.254150,480.986725 195.920868,480.990631 
	C189.563690,481.064819 186.316238,479.194458 185.295288,474.871063 
	C184.225098,470.339142 186.418686,467.183929 193.203278,464.301147 
	C202.171555,464.311279 209.688675,462.069763 216.725815,457.824799 
	C233.443253,447.740387 240.459763,432.279419 240.921310,413.493103 
	C241.284622,398.706146 240.955063,383.902191 240.933258,369.105774 
z" />
  <path fill="#4283C3" opacity="1.000000" stroke="none" d="
M355.002350,369.559265 
	C360.352173,369.121399 365.702240,369.077301 371.579041,369.445587 
	C381.631165,392.902496 404.113342,405.002991 427.757904,399.811401 
	C450.095764,394.906738 466.016357,373.919800 464.900146,350.560455 
	C463.865204,328.901245 447.654449,307.589478 420.220703,304.703186 
	C426.707825,299.023010 426.556519,294.494049 419.945435,289.180420 
	C433.388062,288.405365 444.936371,293.644989 455.488434,301.122528 
	C469.974365,311.387756 478.408234,325.958344 480.721924,343.248169 
	C483.067657,360.777191 479.690369,377.443939 468.552094,392.043823 
	C457.867920,406.048523 443.717682,414.552338 426.644348,416.742065 
	C399.258575,420.254364 372.642548,408.823883 359.971008,382.613678 
	C358.003510,378.543976 356.643524,374.180634 355.002350,369.559265 
z" />
  <path fill="#463C4B" opacity="1.000000" stroke="none" d="
M369.432861,145.108597 
	C366.614716,145.095276 364.239929,145.024734 361.425171,144.895874 
	C360.989532,119.882317 361.050049,94.926903 360.973328,69.971916 
	C360.937317,58.269508 357.240356,48.444847 345.664856,43.424885 
	C343.339294,42.416351 340.551788,42.473019 337.512329,41.592995 
	C336.967224,36.740154 336.887085,32.332878 336.864197,27.555531 
	C336.998230,26.440220 337.075073,25.694986 337.151917,24.949749 
	C356.286316,23.870762 372.704132,38.280327 376.525208,56.154167 
	C376.936340,58.077225 376.978363,60.105789 376.980560,62.085644 
	C377.010773,89.364204 377.003937,116.642799 377.008118,144.378937 
	C374.632111,144.908127 372.254150,144.979752 369.432861,145.108597 
z" />
  <path fill="#463C4B" opacity="1.000000" stroke="none" d="
M153.011200,144.379669 
	C150.641510,144.907211 148.268372,144.976883 145.452988,145.106171 
	C142.631119,145.093933 140.251526,145.022064 137.430939,144.893341 
	C136.993347,117.881355 137.479294,90.914803 136.843033,63.974766 
	C136.359207,43.489063 155.289963,23.770269 176.468445,25.336742 
	C177.042038,26.441965 177.116150,27.190561 177.124451,28.404224 
	C176.992737,33.274261 176.926849,37.679234 176.860962,42.084206 
	C166.568726,39.816380 153.932114,53.135059 153.898331,62.247337 
	C153.797440,89.472885 153.331284,116.697075 153.011200,144.379669 
z" />
  <path fill="#F04B37" opacity="1.000000" stroke="none" d="
M392.834106,352.997253 
	C355.348633,352.997986 317.863159,353.002991 280.377686,352.995789 
	C273.089539,352.994415 273.029205,352.919617 273.003632,345.850006 
	C272.993988,343.184479 273.017517,340.518799 273.036133,337.381134 
	C300.057465,336.930084 327.068573,336.951111 355.007568,336.970337 
	C361.297089,336.923615 366.658722,336.878754 372.483490,336.901245 
	C381.538940,337.024261 390.131287,337.079926 398.593781,337.433746 
	C396.587341,342.820343 394.710724,347.908813 392.834106,352.997253 
z" />
  <path fill="#55596D" opacity="1.000000" stroke="none" d="
M261.435822,121.240143 
	C262.513977,122.460510 263.163269,123.614990 263.756378,124.797661 
	C266.657898,130.583282 263.815277,136.399902 257.412872,136.854416 
	C244.440216,137.775391 237.270432,144.882111 232.955490,156.787384 
	C230.837692,162.630615 226.018661,167.461273 222.677109,172.906677 
	C220.565704,176.347473 217.854706,179.913757 217.275223,183.708206 
	C215.570541,194.870422 210.980927,197.364059 201.601166,191.016083 
	C199.821625,178.669632 202.524368,168.215347 212.398148,159.736954 
	C215.594894,156.991974 217.145828,151.966797 218.674149,147.706451 
	C224.691544,130.932434 240.841324,118.593979 261.435822,121.240143 
z" />
  <path fill="#63AEE0" opacity="1.000000" stroke="none" d="
M372.020355,336.833893 
	C366.658722,336.878754 361.297089,336.923615 355.472504,336.902344 
	C355.875977,328.441254 360.194702,321.473999 364.835571,314.870636 
	C374.890228,300.564270 389.308685,292.744781 406.085693,289.195465 
	C410.225983,288.319580 414.706451,289.051453 419.487976,289.112305 
	C426.556519,294.494049 426.707825,299.023010 419.780396,304.747253 
	C396.648285,305.622803 380.643494,315.763062 372.020355,336.833893 
z" />
  <path fill="#463C4B" opacity="1.000000" stroke="none" d="
M235.012894,65.982216 
	C243.877625,69.123779 247.158524,76.890320 248.508179,84.836967 
	C250.178467,94.671356 249.351562,104.438927 243.451172,113.518875 
	C236.960403,123.507385 220.330154,123.975441 214.748337,113.316055 
	C212.341522,108.719849 210.967957,103.582581 209.538055,98.401459 
	C219.206116,103.437843 223.846939,101.124977 225.099503,90.673157 
	C225.655472,86.034103 227.147568,82.185196 232.125519,80.082115 
	C234.165924,79.220085 236.216583,76.364609 236.600052,74.130592 
	C237.037781,71.580406 235.622772,68.712212 235.012894,65.982216 
z" />
  <path fill="#463C4B" opacity="1.000000" stroke="none" d="
M291.012878,65.982254 
	C299.877625,69.123787 303.158539,76.890320 304.508209,84.836960 
	C306.178528,94.671371 305.351624,104.438927 299.451202,113.518883 
	C292.960388,123.507393 276.330078,123.975426 270.748352,113.316063 
	C268.341583,108.719841 266.967987,103.582588 265.538055,98.401474 
	C275.206085,103.437820 279.846924,101.124947 281.099518,90.673149 
	C281.655487,86.034081 283.147583,82.185196 288.125488,80.082100 
	C290.165894,79.220055 292.216522,76.364624 292.599976,74.130630 
	C293.037689,71.580437 291.622742,68.712250 291.012878,65.982254 
z" />
  <path fill="#4182C3" opacity="1.000000" stroke="none" d="
M336.806946,27.925604 
	C336.887085,32.332878 336.967224,36.740154 337.093140,41.615921 
	C337.734497,49.119923 333.696625,52.726612 326.757660,52.126495 
	C320.016388,51.543480 313.183289,51.897327 306.393829,52.021324 
	C292.395966,52.276970 284.878662,38.441105 291.270203,25.499084 
	C296.594910,31.502701 303.039337,33.572922 310.731934,33.070152 
	C316.038239,32.723347 321.390167,32.861263 326.712769,33.043503 
	C331.117493,33.194317 334.510193,31.740191 336.806946,27.925604 
z" />
  <path fill="#4182C3" opacity="1.000000" stroke="none" d="
M176.917755,42.491386 
	C176.926849,37.679234 176.992737,33.274261 177.342285,28.665154 
	C179.757141,31.991604 183.005951,33.111877 186.962616,33.025337 
	C191.951294,32.916233 196.970581,32.676208 201.929459,33.076836 
	C210.304855,33.753483 217.377869,31.607899 222.803345,24.956554 
	C226.391602,30.968163 226.075607,37.291592 223.111603,43.172966 
	C220.009186,49.328976 214.444290,52.142128 207.421783,52.025860 
	C200.303818,51.908005 193.182388,52.000488 186.062469,51.999763 
	C179.428024,51.999084 177.086288,49.653263 176.917755,42.491386 
z" />
  <path fill="#63AEE0" opacity="1.000000" stroke="none" d="
M222.755829,24.628769 
	C217.377869,31.607899 210.304855,33.753483 201.929459,33.076836 
	C196.970581,32.676208 191.951294,32.916233 186.962616,33.025337 
	C183.005951,33.111877 179.757141,31.991604 177.408112,28.200087 
	C177.116150,27.190561 177.042038,26.441965 176.907959,25.321629 
	C177.566315,18.441290 179.092697,17.027210 185.547134,17.004025 
	C192.187485,16.980171 198.858917,17.399485 205.460083,16.890305 
	C212.711685,16.330957 218.313980,18.674292 222.755829,24.628769 
z" />
  <path fill="#63AEE0" opacity="1.000000" stroke="none" d="
M336.864197,27.555531 
	C334.510193,31.740191 331.117493,33.194317 326.712769,33.043503 
	C321.390167,32.861263 316.038239,32.723347 310.731934,33.070152 
	C303.039337,33.572922 296.594910,31.502701 291.447815,25.142185 
	C294.886810,19.322161 299.850342,16.542767 306.825104,16.910376 
	C314.256683,17.302063 321.725586,17.059874 329.176880,16.978239 
	C334.126862,16.924007 336.935333,19.007229 337.085663,24.557240 
	C337.075073,25.694986 336.998230,26.440220 336.864197,27.555531 
z" />
  <path fill="#55596D" opacity="1.000000" stroke="none" d="
M291.006531,65.991074 
	C291.622742,68.712250 293.037689,71.580437 292.599976,74.130630 
	C292.216522,76.364624 290.165894,79.220055 288.125488,80.082100 
	C283.147583,82.185196 281.655487,86.034081 281.099518,90.673149 
	C279.846924,101.124947 275.206085,103.437820 265.621246,98.000961 
	C264.499573,90.529587 264.858246,83.372856 268.239777,76.541115 
	C272.559448,67.813950 279.141876,63.506634 289.674561,65.332367 
	C290.503632,65.710632 290.746124,65.871643 291.016449,65.990761 
	C291.016449,65.990761 291.000153,65.999893 291.006531,65.991074 
z" />
  <path fill="#55596D" opacity="1.000000" stroke="none" d="
M235.006592,65.991058 
	C235.622772,68.712212 237.037781,71.580406 236.600052,74.130592 
	C236.216583,76.364609 234.165924,79.220085 232.125519,80.082115 
	C227.147568,82.185196 225.655472,86.034103 225.099503,90.673157 
	C223.846939,101.124977 219.206116,103.437843 209.621246,98.000946 
	C208.499496,90.529579 208.858261,83.372849 212.239777,76.541138 
	C216.559433,67.814011 223.141830,63.506615 233.674530,65.332367 
	C234.503647,65.710625 234.746155,65.871643 235.016479,65.990784 
	C235.016479,65.990784 235.000305,65.999908 235.006592,65.991058 
z" />
  <path fill="#463C4B" opacity="1.000000" stroke="none" d="
M327.959503,115.038681 
	C330.091919,116.958633 332.832184,118.514648 334.241089,120.867783 
	C338.236115,127.540001 337.983551,134.912323 335.772034,142.050903 
	C333.493866,149.404510 328.175354,153.002792 320.963959,152.997192 
	C313.794647,152.991623 308.765747,149.273422 306.126038,141.978271 
	C305.733582,140.893677 305.498627,139.752106 305.570831,138.375458 
	C314.678314,143.132172 318.557770,141.608505 321.150574,132.234116 
	C321.443756,131.174179 321.981537,129.731583 322.814789,129.342667 
	C329.423126,126.258568 329.597595,121.005951 327.959503,115.038681 
z" />
  <path fill="#463C4B" opacity="1.000000" stroke="none" d="
M199.959549,115.038727 
	C202.091934,116.958694 204.832123,118.514725 206.241074,120.867851 
	C210.236130,127.540031 209.983459,134.912338 207.771957,142.050919 
	C205.493851,149.404495 200.175354,153.002808 192.963943,152.997192 
	C185.794678,152.991608 180.765747,149.273361 178.126038,141.978271 
	C177.733582,140.893692 177.498688,139.752106 177.570862,138.375473 
	C186.678391,143.132187 190.557755,141.608536 193.150574,132.234146 
	C193.443741,131.174210 193.981491,129.731552 194.814774,129.342651 
	C201.423080,126.258560 201.597610,121.005989 199.959549,115.038727 
z" />
  <path fill="#54596D" opacity="1.000000" stroke="none" d="
M327.696716,114.760590 
	C329.597595,121.005951 329.423126,126.258568 322.814789,129.342667 
	C321.981537,129.731583 321.443756,131.174179 321.150574,132.234116 
	C318.557770,141.608505 314.678314,143.132172 305.620972,138.003632 
	C305.535706,133.482590 304.995300,128.847397 306.180084,124.705727 
	C309.103760,114.485329 315.743256,111.570847 327.696716,114.760590 
z" />
  <path fill="#54596D" opacity="1.000000" stroke="none" d="
M199.696777,114.760620 
	C201.597610,121.005989 201.423080,126.258560 194.814774,129.342651 
	C193.981491,129.731552 193.443741,131.174210 193.150574,132.234146 
	C190.557755,141.608536 186.678391,143.132187 177.620987,138.003632 
	C177.535736,133.482590 176.995300,128.847382 178.180099,124.705719 
	C181.103836,114.485291 187.743286,111.570847 199.696777,114.760620 
z" />
  <path fill="#463C4B" opacity="1.000000" stroke="none" d="
M290.933685,65.756485 
	C290.746124,65.871643 290.503632,65.710632 290.128052,65.359009 
	C290.335052,65.106491 290.629639,65.210464 290.933685,65.756485 
z" />
  <path fill="#463C4B" opacity="1.000000" stroke="none" d="
M234.933685,65.756500 
	C234.746155,65.871643 234.503647,65.710625 234.128006,65.359009 
	C234.335022,65.106491 234.629623,65.210457 234.933685,65.756500 
z" />
  <path fill="none" opacity="1.000000" stroke="none" d="
M240.471069,369.062988 
	C240.955063,383.902191 241.284622,398.706146 240.921310,413.493103 
	C240.459763,432.279419 233.443253,447.740387 216.725815,457.824799 
	C209.688675,462.069763 202.171555,464.311279 193.496796,464.123413 
	C174.883911,464.128052 161.289246,455.733612 152.157471,440.490967 
	C143.092514,425.359924 143.273361,409.321503 151.666534,394.147614 
	C158.564102,381.677612 169.416382,373.281830 183.889816,370.625397 
	C188.393936,369.798737 192.994476,369.134888 197.560074,369.072815 
	C211.707291,368.880463 225.858963,369.013489 240.471069,369.062988 
z" />
  <path fill="#D6E5F0" opacity="1.000000" stroke="none" d="
M372.483490,336.901245 
	C380.643494,315.763062 396.648285,305.622803 419.545349,304.992340 
	C447.654449,307.589478 463.865204,328.901245 464.900146,350.560455 
	C466.016357,373.919800 450.095764,394.906738 427.757904,399.811401 
	C404.113342,405.002991 381.631165,392.902496 372.041016,369.512146 
	C380.594879,369.094238 389.213531,369.022186 398.572479,369.109283 
	C400.175446,370.049835 401.001160,370.877167 401.906433,371.605652 
	C412.378387,380.032654 427.339111,378.391022 435.765472,367.904846 
	C444.085785,357.550659 442.269226,342.396210 431.711212,334.082764 
	C421.901306,326.358276 409.973694,327.462097 398.723602,337.135559 
	C390.131287,337.079926 381.538940,337.024261 372.483490,336.901245 
z" />
  <path fill="#4282C3" opacity="1.000000" stroke="none" d="
M398.593781,337.433716 
	C409.973694,327.462097 421.901306,326.358276 431.711212,334.082764 
	C442.269226,342.396210 444.085785,357.550659 435.765472,367.904846 
	C427.339111,378.391022 412.378387,380.032654 401.906433,371.605652 
	C401.001160,370.877167 400.175446,370.049835 399.022614,369.066223 
	C396.815582,363.845367 394.898651,358.826660 392.907898,353.402618 
	C394.710724,347.908813 396.587341,342.820343 398.593781,337.433716 
z" />
</svg>