<?xml version="1.0" encoding="UTF-8" standalone="no"?>
<!DOCTYPE svg PUBLIC "-//W3C//DTD SVG 1.1//EN" "http://www.w3.org/Graphics/SVG/1.1/DTD/svg11.dtd">
<svg xmlns="http://www.w3.org/2000/svg" version="1.1" viewBox="0.00 0.00 44.00 44.00">
  <g stroke-width="2.00" fill="none" stroke-linecap="butt">
    <path stroke="#808196" vector-effect="non-scaling-stroke" d="
  M 8.84 25.73
  Q 7.53 26.40 6.88 24.80
  Q 3.68 16.86 3.42 8.51
  A 2.03 2.03 0.0 0 1 5.48 6.41
  L 14.02 6.52
  Q 14.52 6.53 14.89 6.88
  Q 16.15 8.09 17.54 6.96
  Q 17.91 6.65 18.00 6.18
  Q 18.28 4.64 16.96 3.85
  Q 16.54 3.60 16.09 3.77
  C 12.96 4.98 9.54 4.49 6.23 4.29
  Q 1.29 3.99 1.52 9.00
  C 2.10 21.69 6.89 33.52 17.79 40.72
  Q 19.81 42.05 21.71 40.94
  C 32.79 34.48 37.99 21.40 38.42 9.00
  C 38.61 3.61 30.73 5.00 27.46 4.95
  C 26.25 4.93 25.36 4.47 24.31 3.98
  A 1.34 1.34 0.0 0 0 22.49 4.72
  Q 21.77 6.63 23.51 7.55
  A 1.08 1.07 -44.1 0 0 24.48 7.56
  C 26.71 6.44 31.75 7.00 34.41 7.02
  A 2.07 2.07 0.0 0 1 36.46 9.17
  C 36.35 12.10 34.74 23.87 32.36 25.81
  Q 31.71 26.34 31.04 25.83
  A 1.07 1.07 0.0 0 1 30.62 24.96
  L 30.77 14.75
  Q 30.79 13.94 30.00 13.73
  L 29.74 13.66
  Q 28.95 13.45 28.99 14.27
  C 29.22 18.98 28.54 20.61 24.96 23.56
  Q 24.56 23.89 24.07 23.72
  Q 19.94 22.28 15.75 23.55
  A 0.81 0.80 60.4 0 1 14.90 23.31
  C 11.83 19.82 10.70 19.23 11.02 14.13
  A 0.81 0.80 2.4 0 0 10.23 13.28
  L 9.96 13.27
  Q 9.24 13.25 9.24 13.97
  L 9.32 24.94
  A 0.88 0.86 -14.3 0 1 8.84 25.73" />
    <path stroke="#808196" vector-effect="non-scaling-stroke" d="
  M 16.65 12.97
  A 1.57 1.57 0.0 0 0 15.08 11.40
  A 1.57 1.57 0.0 0 0 13.51 12.97
  A 1.57 1.57 0.0 0 0 15.08 14.54
  A 1.57 1.57 0.0 0 0 16.65 12.97" />
    <path stroke="#808196" vector-effect="non-scaling-stroke" d="
  M 26.56 13.10
  A 1.57 1.57 0.0 0 0 24.99 11.53
  A 1.57 1.57 0.0 0 0 23.42 13.10
  A 1.57 1.57 0.0 0 0 24.99 14.67
  A 1.57 1.57 0.0 0 0 26.56 13.10" />
    <path stroke="#808196" vector-effect="non-scaling-stroke" d="
  M 18.01 17.46
  A 0.72 0.72 0.0 0 0 17.39 18.56
  L 18.17 19.82
  A 0.72 0.72 0.0 0 0 18.40 20.05
  L 19.91 21.02
  A 0.72 0.72 0.0 0 0 20.85 20.88
  L 22.69 18.69
  A 0.72 0.72 0.0 0 0 22.15 17.50
  L 18.01 17.46" />
    <path stroke="#808196" vector-effect="non-scaling-stroke" d="
  M 23.16 36.13
  Q 23.92 36.01 24.53 35.55
  Q 24.65 35.46 24.54 35.35
  Q 24.15 34.92 24.03 34.58
  A 0.79 0.79 0.0 0 1 24.76 33.52
  L 26.87 33.51
  A 1.69 1.69 0.0 0 0 28.55 31.88
  L 28.85 23.96
  Q 28.92 22.00 27.70 23.53
  L 26.06 25.57
  A 1.49 1.49 0.0 0 1 24.29 26.00
  Q 19.90 24.03 15.50 25.94
  Q 15.31 26.95 11.63 22.72
  Q 10.93 21.93 10.99 22.98
  L 11.50 32.36
  A 1.18 1.16 88.9 0 0 12.64 33.47
  L 15.33 33.54
  Q 15.89 33.56 16.00 34.10
  Q 16.14 34.76 15.68 35.18
  Q 15.30 35.53 15.76 35.77
  Q 16.18 35.98 16.64 36.00
  Q 17.26 36.02 17.36 36.63
  C 17.92 39.99 22.07 40.07 22.63 36.66
  Q 22.70 36.20 23.16 36.13" />
    <path stroke="#808196" vector-effect="non-scaling-stroke" d="
  M 16.1768 30.9880
  A 0.98 0.83 93.7 0 0 17.0683 30.0636
  A 0.98 0.83 93.7 0 0 16.3032 29.0320
  A 0.98 0.83 93.7 0 0 15.4117 29.9564
  A 0.98 0.83 93.7 0 0 16.1768 30.9880" />
    <path stroke="#808196" vector-effect="non-scaling-stroke" d="
  M 24.73 30.05
  A 0.92 0.92 0.0 0 0 23.81 29.13
  A 0.92 0.92 0.0 0 0 22.89 30.05
  A 0.92 0.92 0.0 0 0 23.81 30.97
  A 0.92 0.92 0.0 0 0 24.73 30.05" />
    <path stroke="#808196" vector-effect="non-scaling-stroke" d="
  M 21.42 33.02
  L 18.62 33.00
  A 0.24 0.24 0.0 0 0 18.38 33.24
  L 18.38 33.39
  A 1.54 1.53 0.5 0 0 19.90 34.93
  L 20.10 34.93
  A 1.54 1.53 0.5 0 0 21.65 33.41
  L 21.66 33.26
  A 0.24 0.24 0.0 0 0 21.42 33.02" />
  </g>
  <path fill="#ffffff" d="
  M 0.00 0.00
  L 44.00 0.00
  L 44.00 44.00
  L 0.00 44.00
  L 0.00 0.00
  Z
  M 8.84 25.73
  Q 7.53 26.40 6.88 24.80
  Q 3.68 16.86 3.42 8.51
  A 2.03 2.03 0.0 0 1 5.48 6.41
  L 14.02 6.52
  Q 14.52 6.53 14.89 6.88
  Q 16.15 8.09 17.54 6.96
  Q 17.91 6.65 18.00 6.18
  Q 18.28 4.64 16.96 3.85
  Q 16.54 3.60 16.09 3.77
  C 12.96 4.98 9.54 4.49 6.23 4.29
  Q 1.29 3.99 1.52 9.00
  C 2.10 21.69 6.89 33.52 17.79 40.72
  Q 19.81 42.05 21.71 40.94
  C 32.79 34.48 37.99 21.40 38.42 9.00
  C 38.61 3.61 30.73 5.00 27.46 4.95
  C 26.25 4.93 25.36 4.47 24.31 3.98
  A 1.34 1.34 0.0 0 0 22.49 4.72
  Q 21.77 6.63 23.51 7.55
  A 1.08 1.07 -44.1 0 0 24.48 7.56
  C 26.71 6.44 31.75 7.00 34.41 7.02
  A 2.07 2.07 0.0 0 1 36.46 9.17
  C 36.35 12.10 34.74 23.87 32.36 25.81
  Q 31.71 26.34 31.04 25.83
  A 1.07 1.07 0.0 0 1 30.62 24.96
  L 30.77 14.75
  Q 30.79 13.94 30.00 13.73
  L 29.74 13.66
  Q 28.95 13.45 28.99 14.27
  C 29.22 18.98 28.54 20.61 24.96 23.56
  Q 24.56 23.89 24.07 23.72
  Q 19.94 22.28 15.75 23.55
  A 0.81 0.80 60.4 0 1 14.90 23.31
  C 11.83 19.82 10.70 19.23 11.02 14.13
  A 0.81 0.80 2.4 0 0 10.23 13.28
  L 9.96 13.27
  Q 9.24 13.25 9.24 13.97
  L 9.32 24.94
  A 0.88 0.86 -14.3 0 1 8.84 25.73
  Z
  M 16.65 12.97
  A 1.57 1.57 0.0 0 0 15.08 11.40
  A 1.57 1.57 0.0 0 0 13.51 12.97
  A 1.57 1.57 0.0 0 0 15.08 14.54
  A 1.57 1.57 0.0 0 0 16.65 12.97
  Z
  M 26.56 13.10
  A 1.57 1.57 0.0 0 0 24.99 11.53
  A 1.57 1.57 0.0 0 0 23.42 13.10
  A 1.57 1.57 0.0 0 0 24.99 14.67
  A 1.57 1.57 0.0 0 0 26.56 13.10
  Z
  M 18.01 17.46
  A 0.72 0.72 0.0 0 0 17.39 18.56
  L 18.17 19.82
  A 0.72 0.72 0.0 0 0 18.40 20.05
  L 19.91 21.02
  A 0.72 0.72 0.0 0 0 20.85 20.88
  L 22.69 18.69
  A 0.72 0.72 0.0 0 0 22.15 17.50
  L 18.01 17.46
  Z" />
  <path fill="#01022d" d="
  M 8.84 25.73
  A 0.88 0.86 -14.3 0 0 9.32 24.94
  L 9.24 13.97
  Q 9.24 13.25 9.96 13.27
  L 10.23 13.28
  A 0.81 0.80 2.4 0 1 11.02 14.13
  C 10.70 19.23 11.83 19.82 14.90 23.31
  A 0.81 0.80 60.4 0 0 15.75 23.55
  Q 19.94 22.28 24.07 23.72
  Q 24.56 23.89 24.96 23.56
  C 28.54 20.61 29.22 18.98 28.99 14.27
  Q 28.95 13.45 29.74 13.66
  L 30.00 13.73
  Q 30.79 13.94 30.77 14.75
  L 30.62 24.96
  A 1.07 1.07 0.0 0 0 31.04 25.83
  Q 31.71 26.34 32.36 25.81
  C 34.74 23.87 36.35 12.10 36.46 9.17
  A 2.07 2.07 0.0 0 0 34.41 7.02
  C 31.75 7.00 26.71 6.44 24.48 7.56
  A 1.08 1.07 -44.1 0 1 23.51 7.55
  Q 21.77 6.63 22.49 4.72
  A 1.34 1.34 0.0 0 1 24.31 3.98
  C 25.36 4.47 26.25 4.93 27.46 4.95
  C 30.73 5.00 38.61 3.61 38.42 9.00
  C 37.99 21.40 32.79 34.48 21.71 40.94
  Q 19.81 42.05 17.79 40.72
  C 6.89 33.52 2.10 21.69 1.52 9.00
  Q 1.29 3.99 6.23 4.29
  C 9.54 4.49 12.96 4.98 16.09 3.77
  Q 16.54 3.60 16.96 3.85
  Q 18.28 4.64 18.00 6.18
  Q 17.91 6.65 17.54 6.96
  Q 16.15 8.09 14.89 6.88
  Q 14.52 6.53 14.02 6.52
  L 5.48 6.41
  A 2.03 2.03 0.0 0 0 3.42 8.51
  Q 3.68 16.86 6.88 24.80
  Q 7.53 26.40 8.84 25.73
  Z
  M 23.16 36.13
  Q 23.92 36.01 24.53 35.55
  Q 24.65 35.46 24.54 35.35
  Q 24.15 34.92 24.03 34.58
  A 0.79 0.79 0.0 0 1 24.76 33.52
  L 26.87 33.51
  A 1.69 1.69 0.0 0 0 28.55 31.88
  L 28.85 23.96
  Q 28.92 22.00 27.70 23.53
  L 26.06 25.57
  A 1.49 1.49 0.0 0 1 24.29 26.00
  Q 19.90 24.03 15.50 25.94
  Q 15.31 26.95 11.63 22.72
  Q 10.93 21.93 10.99 22.98
  L 11.50 32.36
  A 1.18 1.16 88.9 0 0 12.64 33.47
  L 15.33 33.54
  Q 15.89 33.56 16.00 34.10
  Q 16.14 34.76 15.68 35.18
  Q 15.30 35.53 15.76 35.77
  Q 16.18 35.98 16.64 36.00
  Q 17.26 36.02 17.36 36.63
  C 17.92 39.99 22.07 40.07 22.63 36.66
  Q 22.70 36.20 23.16 36.13
  Z" />
  <circle fill="#01022d" cx="15.08" cy="12.97" r="1.57" />
  <circle fill="#01022d" cx="24.99" cy="13.10" r="1.57" />
  <path fill="#01022d" d="
  M 18.01 17.46
  L 22.15 17.50
  A 0.72 0.72 0.0 0 1 22.69 18.69
  L 20.85 20.88
  A 0.72 0.72 0.0 0 1 19.91 21.02
  L 18.40 20.05
  A 0.72 0.72 0.0 0 1 18.17 19.82
  L 17.39 18.56
  A 0.72 0.72 0.0 0 1 18.01 17.46
  Z" />
  <path fill="#ffffff" d="
  M 22.63 36.66
  C 22.07 40.07 17.92 39.99 17.36 36.63
  Q 17.26 36.02 16.64 36.00
  Q 16.18 35.98 15.76 35.77
  Q 15.30 35.53 15.68 35.18
  Q 16.14 34.76 16.00 34.10
  Q 15.89 33.56 15.33 33.54
  L 12.64 33.47
  A 1.18 1.16 88.9 0 1 11.50 32.36
  L 10.99 22.98
  Q 10.93 21.93 11.63 22.72
  Q 15.31 26.95 15.50 25.94
  Q 19.90 24.03 24.29 26.00
  A 1.49 1.49 0.0 0 0 26.06 25.57
  L 27.70 23.53
  Q 28.92 22.00 28.85 23.96
  L 28.55 31.88
  A 1.69 1.69 0.0 0 1 26.87 33.51
  L 24.76 33.52
  A 0.79 0.79 0.0 0 0 24.03 34.58
  Q 24.15 34.92 24.54 35.35
  Q 24.65 35.46 24.53 35.55
  Q 23.92 36.01 23.16 36.13
  Q 22.70 36.20 22.63 36.66
  Z
  M 16.1768 30.9880
  A 0.98 0.83 93.7 0 0 17.0683 30.0636
  A 0.98 0.83 93.7 0 0 16.3032 29.0320
  A 0.98 0.83 93.7 0 0 15.4117 29.9564
  A 0.98 0.83 93.7 0 0 16.1768 30.9880
  Z
  M 24.73 30.05
  A 0.92 0.92 0.0 0 0 23.81 29.13
  A 0.92 0.92 0.0 0 0 22.89 30.05
  A 0.92 0.92 0.0 0 0 23.81 30.97
  A 0.92 0.92 0.0 0 0 24.73 30.05
  Z
  M 21.42 33.02
  L 18.62 33.00
  A 0.24 0.24 0.0 0 0 18.38 33.24
  L 18.38 33.39
  A 1.54 1.53 0.5 0 0 19.90 34.93
  L 20.10 34.93
  A 1.54 1.53 0.5 0 0 21.65 33.41
  L 21.66 33.26
  A 0.24 0.24 0.0 0 0 21.42 33.02
  Z" />
  <ellipse fill="#01022d" cx="0.00" cy="0.00" transform="translate(16.24,30.01) rotate(93.7)" rx="0.98" ry="0.83" />
  <circle fill="#01022d" cx="23.81" cy="30.05" r="0.92" />
  <path fill="#01022d" d="
  M 21.42 33.02
  A 0.24 0.24 0.0 0 1 21.66 33.26
  L 21.65 33.41
  A 1.54 1.53 0.5 0 1 20.10 34.93
  L 19.90 34.93
  A 1.54 1.53 0.5 0 1 18.38 33.39
  L 18.38 33.24
  A 0.24 0.24 0.0 0 1 18.62 33.00
  L 21.42 33.02
  Z" />
</svg>
